<?xml version="1.0" standalone="no"?>
<!DOCTYPE svg PUBLIC "-//W3C//DTD SVG 20010904//EN"
 "http://www.w3.org/TR/2001/REC-SVG-20010904/DTD/svg10.dtd">
<svg version="1.0" xmlns="http://www.w3.org/2000/svg"
 width="931.000000pt" height="1280.000000pt" viewBox="0 0 931.000000 1280.000000"
 preserveAspectRatio="xMidYMid meet">
<g transform="translate(0.000000,1280.000000) scale(0.100000,-0.100000)"
fill="#000000" stroke="none">
<path d="M5042 12738 c-21 -35 -47 -79 -57 -98 -18 -35 -72 -108 -132 -179
-18 -21 -33 -45 -33 -54 0 -9 -5 -19 -10 -22 -6 -3 -23 -33 -39 -65 -16 -32
-47 -83 -70 -112 -22 -29 -54 -87 -71 -127 -18 -41 -56 -110 -86 -154 -30 -44
-66 -101 -79 -126 -12 -26 -42 -69 -64 -96 -23 -28 -58 -84 -79 -125 -20 -41
-49 -90 -64 -108 -15 -18 -31 -45 -34 -60 -4 -15 -15 -33 -25 -39 -31 -23
-173 -220 -233 -325 -62 -107 -179 -276 -251 -363 -23 -27 -67 -86 -98 -131
-31 -44 -74 -102 -96 -128 -21 -27 -51 -71 -67 -100 -15 -28 -39 -67 -54 -86
-15 -19 -40 -66 -55 -105 -15 -38 -33 -83 -40 -100 -7 -16 -25 -59 -40 -95
-25 -60 -66 -129 -105 -175 -9 -11 -26 -56 -39 -101 -21 -75 -21 -84 -8 -117
10 -24 28 -43 54 -56 21 -10 44 -29 51 -41 11 -18 10 -25 -7 -46 -33 -42 -37
-139 -8 -214 4 -10 -5 -22 -25 -35 -17 -11 -42 -40 -55 -65 -13 -25 -39 -72
-57 -105 -61 -111 -76 -166 -76 -275 l0 -99 -41 -12 c-22 -7 -49 -24 -60 -38
-11 -14 -28 -37 -37 -50 -16 -21 -21 -22 -57 -12 -22 6 -79 11 -126 11 -100 0
-94 -4 -199 145 -30 43 -68 93 -83 111 -31 37 -100 64 -162 64 -48 0 -60 10
-98 90 -14 30 -65 103 -112 162 -66 84 -102 118 -158 155 -39 26 -89 62 -109
80 -21 18 -60 44 -88 58 -28 14 -78 50 -110 80 -56 52 -96 69 -144 62 -14 -2
-23 12 -41 68 l-23 70 43 46 c51 55 60 89 51 197 -6 67 -4 84 15 127 12 27 24
77 27 112 5 61 4 63 -31 98 -44 44 -91 48 -136 9 -36 -30 -61 -22 -87 28 -14
27 -15 54 -9 187 4 106 13 176 25 218 10 34 22 100 26 147 7 94 5 91 98 156
68 48 182 238 221 370 20 66 25 106 25 188 0 100 -1 108 -30 153 -41 63 -113
129 -191 173 -37 22 -74 52 -87 73 -13 19 -40 41 -60 50 -48 20 -102 4 -153
-45 -21 -21 -57 -49 -81 -64 -70 -43 -171 -142 -201 -195 -14 -27 -33 -79 -41
-114 -9 -37 -23 -71 -35 -80 -42 -35 -71 -90 -71 -138 0 -46 29 -111 50 -111
6 0 37 -27 69 -59 l58 -59 -8 -48 c-17 -103 -12 -134 26 -169 19 -18 55 -41
81 -51 43 -16 45 -19 40 -47 -3 -16 -6 -87 -6 -157 l0 -128 -27 -7 c-16 -3
-57 -23 -93 -44 -36 -22 -82 -46 -102 -54 -39 -16 -78 -67 -78 -102 0 -11 6
-32 14 -46 11 -22 11 -29 -1 -45 -9 -12 -13 -38 -11 -74 2 -49 -1 -58 -25 -82
-33 -33 -36 -79 -7 -126 25 -40 25 -42 -1 -42 -11 0 -34 -14 -51 -30 -24 -25
-29 -36 -23 -58 3 -15 15 -36 26 -48 10 -11 19 -28 19 -37 0 -42 36 -95 116
-173 l86 -84 -25 -29 c-30 -36 -41 -89 -27 -126 6 -15 25 -46 44 -68 l33 -42
-9 -250 c-5 -137 -6 -286 -3 -330 13 -152 5 -238 -40 -450 -27 -123 -45 -277
-45 -375 0 -36 -7 -110 -15 -164 -8 -55 -15 -127 -15 -160 0 -34 -7 -95 -16
-136 -16 -75 -30 -405 -38 -865 -2 -110 -9 -251 -15 -313 -9 -81 -10 -127 -2
-160 22 -104 22 -119 1 -159 -19 -35 -21 -53 -19 -215 1 -155 -1 -185 -19
-235 -49 -140 -56 -198 -58 -428 -1 -168 -5 -241 -19 -310 -27 -136 -31 -244
-21 -548 9 -276 9 -278 -17 -410 -14 -72 -28 -172 -31 -222 -3 -51 -15 -118
-27 -155 -12 -37 -24 -111 -29 -170 -6 -75 -21 -156 -54 -277 l-47 -172 2
-168 c1 -117 -3 -191 -14 -243 -8 -41 -20 -109 -26 -150 -17 -121 -34 -502
-26 -594 6 -75 4 -90 -15 -133 -17 -35 -24 -76 -29 -153 -4 -68 -12 -116 -23
-136 -50 -93 -60 -135 -68 -309 -5 -111 -13 -187 -24 -220 -32 -98 -76 -348
-76 -433 0 -79 1 -84 33 -118 32 -35 36 -37 112 -40 121 -5 149 17 198 156 27
74 27 79 27 324 0 190 5 283 19 390 28 208 41 328 41 390 0 30 7 76 16 101 11
33 18 116 24 288 5 133 16 283 24 332 9 50 20 142 26 205 5 63 18 183 29 265
11 83 24 186 30 230 6 44 20 157 31 250 12 94 27 199 35 235 7 36 21 109 30
164 9 54 26 123 38 155 20 53 21 80 28 586 l6 530 28 110 c43 176 44 182 45
345 0 85 5 184 11 220 6 36 12 106 14 155 2 50 13 132 24 182 15 65 21 128 21
209 0 75 6 138 16 178 13 50 15 87 9 206 -4 80 -8 226 -9 325 -2 153 0 188 16
235 28 82 66 292 74 404 l7 98 24 -28 c13 -16 48 -77 77 -135 30 -58 78 -134
108 -169 59 -71 152 -213 198 -305 43 -86 42 -174 -4 -321 -18 -60 -50 -165
-71 -234 -21 -69 -44 -138 -51 -155 -28 -66 -95 -291 -100 -339 -11 -96 5
-127 134 -257 126 -126 175 -161 322 -233 81 -39 105 -46 154 -46 56 0 61 2
102 44 38 37 51 44 99 50 88 10 128 31 178 94 26 31 49 68 52 82 3 14 31 59
61 100 59 81 113 185 179 350 37 91 155 286 184 304 4 3 17 -25 27 -62 17 -60
19 -98 16 -344 -1 -203 -6 -296 -17 -350 -9 -40 -18 -147 -21 -238 -3 -91 -12
-199 -20 -240 -9 -41 -20 -174 -26 -295 -11 -202 -12 -262 -8 -367 0 -21 -10
-81 -24 -134 -15 -53 -26 -104 -26 -115 0 -11 -12 -52 -26 -92 -18 -52 -28
-105 -34 -193 -4 -67 -12 -130 -18 -140 -9 -18 -25 -81 -68 -274 -22 -94 -57
-178 -172 -404 -51 -99 -95 -195 -98 -215 -4 -20 -19 -67 -35 -106 -32 -80
-55 -192 -65 -316 -6 -85 -6 -86 33 -170 25 -53 50 -91 67 -102 46 -31 66 -74
66 -148 0 -36 7 -87 16 -112 9 -26 14 -53 11 -61 -3 -7 -25 -19 -50 -25 -72
-21 -104 -46 -153 -121 -69 -107 -74 -128 -74 -325 0 -163 -1 -173 -21 -191
-12 -10 -35 -43 -51 -72 -17 -29 -39 -57 -49 -63 -11 -5 -45 -33 -78 -62 -57
-51 -177 -126 -239 -149 -24 -9 -48 -9 -102 0 -95 16 -223 15 -264 -2 -60 -25
-136 -124 -136 -178 0 -13 9 -38 20 -56 31 -51 89 -66 144 -37 32 17 102 20
140 5 16 -6 35 -29 51 -61 33 -65 66 -95 134 -126 75 -33 166 -40 261 -19 l76
17 94 -32 c84 -28 108 -32 205 -32 61 0 129 5 153 12 23 6 97 47 163 89 67 42
151 93 188 112 36 19 99 53 139 75 l72 39 31 -37 c47 -56 82 -67 226 -67 104
0 130 3 163 20 49 25 99 25 142 1 53 -31 146 -58 250 -72 111 -14 146 -8 236
42 54 30 67 30 91 -4 16 -22 70 -47 104 -47 13 0 43 11 68 23 24 13 79 42 121
64 42 23 91 52 110 66 18 14 54 35 80 46 l47 20 189 -85 c217 -96 282 -111
339 -75 18 11 37 35 44 55 7 20 18 36 24 36 6 0 46 -24 90 -53 156 -103 194
-117 405 -148 56 -8 95 -19 115 -34 17 -12 59 -34 95 -50 57 -25 76 -28 154
-27 83 2 93 5 149 39 33 20 87 60 120 90 33 29 94 72 136 95 l76 43 321 0 322
0 93 48 c101 51 109 54 109 35 0 -15 -1 -15 225 -23 127 -5 176 -11 194 -22
21 -14 48 -15 175 -8 83 4 216 8 296 10 105 2 157 7 189 19 29 11 76 16 140
16 69 1 112 6 151 20 72 25 99 25 127 -2 23 -21 26 -21 125 -10 66 8 108 18
120 28 14 14 22 15 46 5 21 -9 50 -9 107 -2 85 10 110 27 99 65 -10 33 -66 86
-91 86 -21 0 -23 5 -23 44 0 25 -5 57 -11 73 -14 35 -21 455 -9 503 5 19 6 73
1 119 -7 82 -6 89 35 214 24 73 53 140 65 153 30 32 44 128 44 301 l0 132 -44
83 c-45 83 -51 107 -70 279 -5 43 -18 94 -31 119 -18 36 -22 55 -17 105 2 34
0 70 -6 80 -5 10 -10 50 -11 89 -1 56 -6 79 -25 110 -21 33 -23 43 -13 70 27
79 -5 256 -54 295 -16 13 -32 17 -43 13 -29 -11 -106 -102 -135 -161 -24 -47
-30 -52 -53 -48 -14 2 -48 -4 -75 -14 -28 -10 -55 -16 -61 -12 -6 3 -16 -2
-23 -11 -9 -13 -17 -15 -30 -8 -12 7 -25 6 -40 0 -18 -9 -31 -3 -85 40 -91 71
-146 97 -175 83 -13 -6 -26 -21 -30 -35 -9 -37 12 -118 46 -182 16 -31 30 -62
30 -69 0 -7 9 -24 21 -39 19 -24 20 -29 6 -44 -10 -12 -14 -38 -12 -92 3 -121
4 -125 31 -165 l25 -38 -27 -60 c-16 -37 -28 -85 -32 -126 -2 -36 -9 -72 -15
-79 -5 -6 -28 -12 -51 -12 -41 -1 -53 -6 -156 -65 -28 -16 -65 -37 -81 -46
-43 -24 -71 -63 -57 -77 9 -9 8 -12 -5 -12 -9 0 -25 -8 -36 -19 -10 -10 -27
-24 -37 -30 -17 -9 -17 -12 -4 -21 13 -8 11 -11 -8 -16 -14 -4 -22 -13 -20
-23 3 -18 -21 -58 -70 -116 -22 -26 -32 -48 -30 -65 1 -14 0 -30 -4 -35 -39
-65 -56 -105 -48 -110 6 -4 2 -18 -11 -36 -11 -16 -22 -43 -24 -59 -2 -17 -13
-51 -25 -76 -23 -53 -24 -58 -10 -49 15 10 12 -11 -4 -25 -8 -6 -12 -18 -9
-26 7 -18 -23 -93 -49 -121 -11 -12 -17 -27 -13 -33 4 -6 -5 -29 -20 -50 -17
-25 -25 -46 -21 -58 4 -12 -4 -43 -18 -76 -14 -31 -21 -58 -15 -61 5 -4 9 -18
9 -32 0 -17 7 -27 21 -30 18 -5 20 -11 16 -42 -3 -20 -9 -45 -13 -55 -6 -16
-4 -18 9 -13 14 5 17 0 17 -24 0 -36 -13 -64 -47 -100 l-24 -26 -35 32 c-20
18 -43 39 -51 47 -8 7 -28 35 -44 61 -36 59 -83 82 -144 72 -113 -19 -104 -21
-121 21 -9 22 -29 66 -45 99 -22 47 -30 80 -35 150 -4 50 -12 99 -19 110 -7
11 -37 33 -66 49 -30 16 -72 44 -94 62 -22 17 -55 41 -73 52 -36 21 -150 144
-196 211 -21 30 -26 44 -18 53 6 7 22 60 37 118 14 58 39 150 55 205 22 79 30
137 39 278 7 98 16 188 20 200 5 13 12 53 16 90 11 99 -13 141 -118 211 -52
34 -97 74 -122 107 -22 29 -56 69 -76 89 -61 61 -307 451 -339 539 -59 161
-73 190 -109 233 -25 31 -43 66 -51 100 -7 29 -27 87 -46 130 -18 42 -36 93
-40 115 -4 21 -13 50 -20 65 -20 38 -17 82 7 139 47 109 2 209 -95 209 -42 0
-44 1 -74 58 -55 104 -131 313 -139 385 -3 29 -12 64 -19 78 -14 29 -64 259
-56 259 2 0 32 -28 64 -62 77 -81 213 -285 232 -348 18 -62 25 -75 103 -192
35 -53 87 -147 114 -210 51 -113 84 -162 169 -249 38 -40 58 -50 134 -74 86
-26 91 -27 140 -12 138 42 167 47 266 47 85 0 112 4 147 21 134 65 258 316
318 644 7 39 22 102 33 140 37 124 44 245 39 630 -7 504 -23 943 -36 990 -6
22 -11 102 -11 178 0 138 -10 187 -44 227 -11 12 -14 84 -16 345 -2 182 -2
335 -1 341 0 6 40 42 87 80 99 79 139 134 208 284 27 58 57 117 67 131 10 15
23 38 28 52 l10 26 103 -6 c82 -5 110 -3 133 10 39 19 133 121 167 180 17 30
41 53 67 67 40 20 71 62 71 97 0 27 28 63 50 63 10 0 37 16 60 35 34 28 50 35
85 35 24 0 47 -5 50 -11 4 -5 19 -15 33 -20 35 -13 79 6 98 42 18 35 10 70
-22 100 l-24 22 30 19 c42 25 56 59 41 96 -15 36 -51 56 -85 50 -31 -6 -31 -7
-5 62 17 45 20 69 16 128 -6 73 -5 74 28 109 19 20 39 49 44 65 9 26 7 33 -15
55 -21 21 -31 24 -62 19 -101 -18 -107 -18 -162 8 -62 29 -166 119 -155 135 3
6 20 18 37 27 25 13 51 15 132 11 56 -3 113 -9 128 -12 57 -15 88 60 48 120
-27 41 -25 66 10 110 17 21 30 48 30 61 0 49 -70 81 -120 54 -11 -6 -37 -41
-59 -78 -21 -37 -48 -75 -58 -84 -19 -17 -84 -48 -101 -48 -5 0 -9 56 -8 124
l1 123 44 12 c83 22 133 109 111 191 -16 58 -43 72 -155 78 -82 4 -94 7 -99
24 -2 11 -1 82 4 157 18 271 21 293 52 355 28 56 29 59 13 91 -8 19 -26 42
-40 53 -27 21 -120 52 -238 78 -88 19 -118 15 -283 -37 -79 -25 -97 -35 -134
-75 -48 -52 -48 -59 -10 -189 25 -85 47 -207 53 -297 l5 -68 -57 0 c-68 0
-114 -21 -155 -73 -24 -30 -31 -48 -30 -80 2 -78 70 -169 151 -203 32 -14 33
-15 33 -77 0 -34 3 -86 7 -116 l6 -54 -41 23 c-34 19 -49 38 -78 97 -42 84
-64 102 -98 79 -21 -13 -32 -34 -50 -88 -3 -10 -18 -20 -33 -23 -62 -13 -78
-28 -77 -73 1 -75 68 -122 127 -91 60 33 168 4 251 -67 22 -19 45 -34 52 -34
25 0 34 -25 17 -51 -22 -32 -39 -45 -95 -74 -61 -32 -113 -40 -181 -25 -66 13
-89 5 -112 -40 -14 -27 -14 -33 0 -60 8 -16 33 -39 55 -50 48 -25 60 -45 60
-104 0 -26 5 -55 12 -66 9 -14 9 -30 1 -67 -7 -26 -15 -70 -18 -97 -4 -27 -19
-81 -35 -120 -45 -112 -48 -172 -14 -297 3 -11 -3 -19 -20 -23 -13 -3 -38 -22
-55 -41 -35 -40 -40 -83 -17 -140 16 -37 10 -48 -44 -75 -14 -8 -50 -37 -80
-65 -55 -52 -55 -52 -135 -59 -96 -7 -145 -20 -177 -45 -14 -11 -63 -26 -116
-36 -101 -19 -156 -48 -229 -123 -29 -30 -58 -47 -95 -58 -69 -21 -125 -50
-166 -85 -18 -16 -36 -29 -41 -29 -4 0 -27 23 -51 51 -23 28 -75 71 -114 96
-39 25 -83 56 -97 69 -24 23 -70 44 -188 85 -42 15 -73 37 -131 93 -76 74 -88
81 -165 90 -72 8 -141 40 -187 87 -46 48 -62 53 -268 89 -36 6 -88 24 -115 38
-47 25 -50 30 -55 74 -4 30 -14 56 -29 72 l-24 25 46 123 c25 68 49 137 52
153 4 17 13 47 21 68 18 48 18 118 0 162 -8 19 -36 57 -62 85 -40 43 -47 56
-46 88 3 89 15 164 42 257 54 189 70 255 70 282 0 38 23 156 60 305 19 78 30
149 30 194 0 38 9 119 21 180 37 198 50 287 59 429 5 77 19 199 31 270 12 72
22 142 22 158 0 15 4 27 9 27 4 0 8 10 8 23 0 30 27 156 51 238 10 36 19 95
19 132 0 92 47 351 75 417 13 30 32 82 40 115 9 33 29 101 45 150 35 111 46
195 31 224 -20 37 -47 25 -89 -41z m2620 -2645 c21 -19 22 -37 7 -99 -7 -27
-20 -49 -33 -56 -24 -13 -138 -19 -156 -8 -20 12 -32 100 -17 123 30 45 163
72 199 40z m267 -3 c62 -22 71 -32 71 -78 0 -51 -37 -82 -97 -82 -69 0 -106
26 -123 84 -19 69 -4 96 52 96 24 0 68 -9 97 -20z m-140 -218 c18 -63 15 -79
-18 -84 -36 -5 -41 7 -41 107 l1 70 24 -28 c13 -15 29 -44 34 -65z m-79 0 c0
-43 -3 -81 -6 -84 -3 -3 -17 -3 -32 2 -23 6 -27 12 -24 41 3 36 40 119 54 119
4 0 8 -35 8 -78z m-208 -113 c3 -16 1 -29 -4 -29 -4 0 -8 7 -8 15 0 9 -7 30
-16 48 -17 32 -17 32 4 14 11 -10 22 -31 24 -48z m442 11 c-29 -56 -40 -64
-29 -22 5 23 41 72 52 72 2 0 -9 -22 -23 -50z m-371 -130 c-5 -18 0 -20 41
-20 42 0 46 2 46 25 0 16 6 25 15 25 9 0 15 -9 15 -25 0 -18 5 -25 20 -25 15
0 20 7 20 25 0 14 5 25 11 25 6 0 9 -12 7 -27 -2 -20 2 -28 12 -28 9 0 16 11
18 28 5 38 32 36 32 -4 0 -29 1 -30 33 -24 56 13 77 24 77 42 1 17 1 17 14 0
12 -16 11 -21 -7 -41 -12 -12 -25 -21 -29 -19 -5 2 -8 -6 -9 -19 l0 -23 -9 23
c-12 29 -28 28 -36 -3 -8 -31 -32 -33 -36 -2 -2 16 -10 22 -29 23 -14 1 -31 4
-36 7 -6 4 -14 -8 -17 -28 -8 -43 -26 -46 -26 -5 0 38 -22 40 -37 3 -9 -24
-11 -25 -12 -7 -1 28 -29 53 -35 33 -13 -41 -14 -43 -15 -22 -1 27 -22 35 -38
14 -11 -14 -12 -13 -13 9 0 36 11 71 20 65 5 -3 6 -14 3 -25z m44 8 c-3 -8 -6
-5 -6 6 -1 11 2 17 5 13 3 -3 4 -12 1 -19z m427 -198 c19 -22 49 -67 66 -100
17 -33 47 -79 67 -101 l36 -40 -16 -35 c-10 -19 -17 -47 -17 -63 0 -16 -13
-44 -29 -65 -16 -21 -31 -40 -33 -44 -6 -13 -110 -72 -118 -67 -4 3 -6 22 -3
43 14 104 -127 129 -153 27 -7 -29 -1 -121 10 -146 11 -26 -70 -53 -135 -46
-27 3 -60 2 -73 -2 -25 -10 -131 11 -175 34 -62 32 -84 88 -86 216 0 46 5 61
28 88 23 28 27 42 27 92 0 33 -5 69 -11 80 -9 17 -4 29 31 75 43 57 67 67 88
34 6 -11 34 -31 62 -45 47 -24 56 -25 152 -19 57 4 115 13 130 20 15 8 41 34
58 59 17 25 37 45 44 45 8 0 30 -18 50 -40z m899 -8452 c3 -13 9 -50 12 -83 4
-33 12 -66 18 -73 5 -7 11 -38 12 -70 2 -31 6 -92 9 -135 5 -70 4 -78 -11 -75
-18 3 -29 35 -43 128 -4 30 -20 89 -35 130 -24 66 -25 79 -15 114 27 91 42
109 53 64z"/>
</g>
</svg>
