<?xml version="1.0" standalone="no"?>
<!DOCTYPE svg PUBLIC "-//W3C//DTD SVG 20010904//EN"
 "http://www.w3.org/TR/2001/REC-SVG-20010904/DTD/svg10.dtd">
<svg version="1.0" xmlns="http://www.w3.org/2000/svg"
 width="1280.000000pt" height="1212.000000pt" viewBox="0 0 1280.000000 1212.000000"
 preserveAspectRatio="xMidYMid meet">
<g transform="translate(0.000000,1212.000000) scale(0.100000,-0.100000)"
fill="#000000" stroke="none">
<path d="M6802 11598 l3 -463 668 -3 c561 -2 667 -4 667 -16 0 -12 -1795
-1801 -1824 -1818 -7 -4 -58 25 -120 69 -323 227 -734 429 -1093 539 -449 136
-871 191 -1334 172 -916 -36 -1832 -422 -2499 -1052 -325 -307 -601 -678 -797
-1071 -200 -398 -327 -817 -390 -1275 -14 -108 -18 -201 -18 -460 0 -331 4
-384 46 -635 163 -963 712 -1868 1475 -2432 169 -124 159 -112 199 -253 148
-519 378 -964 713 -1380 108 -133 375 -404 512 -519 522 -437 1127 -724 1780
-845 241 -44 414 -59 690 -59 346 0 606 30 925 108 697 169 1300 509 1810
1020 511 511 867 1135 1035 1818 77 316 110 597 110 949 0 445 -68 852 -212
1271 -28 83 -47 152 -42 157 12 11 2214 1247 2238 1256 17 7 19 4 13 -32 -4
-21 -84 -312 -179 -646 -94 -334 -169 -611 -165 -614 13 -14 881 -254 888
-247 6 6 775 2703 802 2815 7 26 5 28 -60 47 -461 134 -2766 782 -2770 778 -4
-5 -253 -871 -253 -883 0 -8 46 -22 651 -194 332 -94 610 -173 618 -176 12 -4
11 -8 -5 -23 -28 -28 -2211 -1251 -2232 -1251 -9 0 -23 9 -29 20 -7 10 -59 77
-115 147 -180 225 -480 510 -726 691 l-72 54 -26 86 c-107 360 -243 674 -419
968 -79 132 -101 165 -213 316 -35 48 -62 94 -60 101 2 8 412 421 911 917 694
690 911 900 918 889 5 -8 9 -295 9 -666 l0 -652 33 -6 c17 -3 226 -4 462 -3
l430 3 3 1473 2 1472 -1480 0 -1480 0 2 -462z m-2617 -2459 c799 -70 1552
-462 2041 -1064 128 -159 244 -335 220 -335 -2 0 -59 11 -126 25 -68 14 -166
32 -219 40 -945 144 -1934 -73 -2721 -598 -914 -610 -1525 -1556 -1697 -2626
-14 -91 -30 -170 -35 -176 -13 -13 -51 32 -147 175 -269 401 -425 819 -492
1320 -17 127 -18 507 -1 640 72 560 286 1074 626 1505 99 125 320 347 447 449
291 231 678 432 1030 535 189 55 444 102 614 114 116 8 348 6 460 -4z m1755
-2253 c223 -36 437 -93 630 -168 123 -48 289 -130 295 -147 16 -40 27 -254 22
-416 -14 -446 -108 -816 -312 -1230 -286 -580 -741 -1031 -1330 -1320 -284
-139 -577 -229 -915 -282 -165 -26 -626 -26 -790 0 -253 40 -479 100 -690 184
-126 50 -245 107 -254 122 -17 28 -27 344 -16 511 34 530 191 1000 481 1440
125 190 236 327 389 480 487 486 1099 772 1805 844 104 10 584 -2 685 -18z
m1913 -1148 c55 -68 149 -214 215 -333 117 -211 232 -516 286 -755 178 -803
34 -1614 -409 -2285 -445 -677 -1105 -1124 -1885 -1279 -227 -45 -390 -59
-645 -53 -325 7 -548 44 -835 138 -581 191 -1107 581 -1476 1095 -70 98 -122
189 -112 199 3 3 75 -8 159 -25 262 -54 412 -70 689 -77 361 -8 610 16 946 91
491 110 897 286 1339 582 657 439 1157 1073 1449 1836 88 231 158 491 200 748
9 52 19 110 22 128 2 17 9 32 14 32 5 0 24 -19 43 -42z"/>
</g>
</svg>
